<svg xmlns="http://www.w3.org/2000/svg" width="340" height="72" viewBox="0 0 340 72" fill="none">
  <rect x="2" y="8" width="56" height="56" rx="14" fill="url(#paint0_linear_1_2)"/>
  <path d="M17 49V23h11.2c3.82 0 6.62.91 8.4 2.72 1.8 1.79 2.7 4.2 2.7 7.25 0 3.13-.93 5.61-2.8 7.44-1.84 1.73-4.64 2.59-8.4 2.59h-5.04V49H17Zm6.36-11h4.02c1.9 0 3.32-.4 4.25-1.2.95-.83 1.42-2.09 1.42-3.78 0-1.59-.43-2.77-1.3-3.55-.86-.78-2.3-1.17-4.32-1.17h-4.07V38Z" fill="white"/>
  <text x="74" y="33" fill="white" font-family="Instrument Sans, Arial, sans-serif" font-size="13" font-weight="500" letter-spacing="0.24em">
    MARKETING
  </text>
  <text x="74" y="58" fill="white" font-family="Instrument Sans, Arial, sans-serif" font-size="34" font-weight="700" letter-spacing="0.01em">
    Arcode
  </text>
  <defs>
    <linearGradient id="paint0_linear_1_2" x1="2" y1="8" x2="58" y2="64" gradientUnits="userSpaceOnUse">
      <stop stop-color="#8E5CFF"/>
      <stop offset="1" stop-color="#612ED8"/>
    </linearGradient>
  </defs>
</svg>
